<?xml version="1.0" encoding="UTF-8" standalone="no"?>
<svg
   xmlns:dc="http://purl.org/dc/elements/1.1/"
   xmlns:cc="http://creativecommons.org/ns#"
   xmlns:rdf="http://www.w3.org/1999/02/22-rdf-syntax-ns#"
   xmlns:svg="http://www.w3.org/2000/svg"
   xmlns="http://www.w3.org/2000/svg"
   xmlns:sodipodi="http://sodipodi.sourceforge.net/DTD/sodipodi-0.dtd"
   xmlns:inkscape="http://www.inkscape.org/namespaces/inkscape"
   id="svg8"
   version="1.1"
   viewBox="0 0 1e-05 9.9999997e-06"
   height="9.9999997e-06mm"
   width="9.9999997e-06mm"
   sodipodi:docname="CarpenPi_1.svg"
   inkscape:export-filename="/home/jannetta/CARPENTRIES/CarpenPi_small.png"
   inkscape:export-xdpi="23.24295"
   inkscape:export-ydpi="23.24295"
   inkscape:version="1.0.2 (1.0.2+r75+1)">
  <sodipodi:namedview
     pagecolor="#ffffff"
     bordercolor="#666666"
     borderopacity="1"
     objecttolerance="10"
     gridtolerance="10"
     guidetolerance="10"
     inkscape:pageopacity="0"
     inkscape:pageshadow="2"
     inkscape:window-width="2560"
     inkscape:window-height="1406"
     id="namedview976"
     showgrid="false"
     fit-margin-top="0"
     fit-margin-left="0"
     fit-margin-right="0"
     fit-margin-bottom="0"
     inkscape:zoom="0.9716525"
     inkscape:cx="53.116218"
     inkscape:cy="141.10449"
     inkscape:window-x="0"
     inkscape:window-y="30"
     inkscape:window-maximized="1"
     inkscape:current-layer="g889"
     inkscape:document-rotation="0" />
  <defs
     id="defs2" />
  <metadata
     id="metadata5">
    <rdf:RDF>
      <cc:Work
         rdf:about="">
        <dc:format>image/svg+xml</dc:format>
        <dc:type
           rdf:resource="http://purl.org/dc/dcmitype/StillImage" />
        <dc:title></dc:title>
      </cc:Work>
    </rdf:RDF>
  </metadata>
  <g
     transform="translate(14.936838,-50.025125)"
     id="layer1">
    <g
       id="g889">
      <g
         id="g281">
        <g
           id="g1565"
           transform="matrix(1.3134796,0,0,1.3134796,-17.96849,-8.1170286)"
           style="stroke-width:0.761337" />
      </g>
      <g
         id="layer1-5"
         transform="matrix(2.828125,0,0,2.828125,-159.47215,-351.3661)"
         style="stroke-width:0.0883978">
        <g
           aria-label="CarpenPi"
           id="text251"
           style="font-style:normal;font-variant:normal;font-weight:bold;font-stretch:normal;font-size:3.74217px;line-height:1.25;font-family:Chilanka;-inkscape-font-specification:'Chilanka, Bold';font-variant-ligatures:normal;font-variant-caps:normal;font-variant-numeric:normal;font-variant-east-asian:normal;fill:#000000;fill-opacity:1;stroke:none;stroke-width:0.00827">
          <path
             id="path297"
             style="font-style:normal;font-variant:normal;font-weight:bold;font-stretch:normal;font-size:3.74217px;font-family:Chilanka;-inkscape-font-specification:'Chilanka, Bold';font-variant-ligatures:normal;font-variant-caps:normal;font-variant-numeric:normal;font-variant-east-asian:normal;stroke-width:0.00827"
             d="m 69.217049,163.33645 c 0,0.10415 0.07857,0.19003 0.168105,0.19003 0.04203,0 0.08953,-0.0128 0.142524,-0.0402 0.09502,-0.0329 0.155315,-0.11694 0.155315,-0.20648 0,-0.095 -0.09136,-0.21561 -0.20465,-0.21561 -0.116943,0 -0.261294,0.13704 -0.261294,0.27226 z m 0.296011,1.92225 c 0.01827,-0.36545 0.01827,-0.65781 0.01827,-1.05432 0,-0.12059 -0.0018,-0.24302 -0.0037,-0.37275 0,-0.0767 -0.05664,-0.11329 -0.115115,-0.11329 -0.0603,0 -0.120598,0.0384 -0.120598,0.11694 0.0018,0.095 0.0018,0.19552 0.0018,0.29784 0,0.28139 0.0018,1.15298 -0.05299,1.27724 -0.0055,0.0164 -0.0091,0.0329 -0.0091,0.0475 0,0.0676 0.05664,0.1206 0.120597,0.1206 0.113288,0 0.153487,-0.12425 0.160796,-0.31976 z m -1.850985,-0.84784 c 0.03472,0.002 0.07126,0.002 0.104152,0.002 0.359965,0 0.641358,-0.0786 0.844181,-0.23754 0.160796,-0.12608 0.243022,-0.27592 0.243022,-0.45133 0,-0.19551 -0.09502,-0.35631 -0.281394,-0.49701 -0.239367,-0.18089 -0.582887,-0.27956 -1.028731,-0.29418 -0.0018,0 -0.0018,0 -0.0037,0 -0.06212,0 -0.11877,0.0566 -0.11877,0.11877 l 0.0055,2.47224 c 0,0.0768 0.05847,0.11512 0.11877,0.11512 0.05847,0 0.11877,-0.0384 0.11877,-0.11512 z m -0.0018,-0.23754 -0.0018,-0.99584 c 0.334383,0.0256 0.592023,0.10598 0.771091,0.23937 0.120597,0.0895 0.186378,0.19916 0.186378,0.30697 0,0.0932 -0.04751,0.18455 -0.15166,0.26495 -0.160797,0.12608 -0.394682,0.18638 -0.701657,0.18638 -0.03289,0 -0.06761,0 -0.102325,-0.002 z m -2.483234,-0.49883 c -0.0603,0 -0.122425,0.0457 -0.122425,0.11694 0,0.0311 0.01645,0.0621 0.04385,0.0968 0.03106,0.0384 0.06578,0.12608 0.104152,0.26678 0.03837,0.14069 0.0603,0.35083 0.06578,0.63039 -0.02375,0.15166 -0.03654,0.31611 -0.03654,0.49518 0,0.053 0.0018,0.10598 0.0037,0.1608 0.0037,0.0731 0.06213,0.10963 0.120597,0.10963 0.05482,0 0.107807,-0.0329 0.115116,-0.1005 l 0.0073,-0.0713 c 0.01827,-0.17724 0.02741,-0.35448 0.02741,-0.52989 0,-0.0164 0,-0.0311 0,-0.0475 0.06761,-0.3892 0.264949,-0.81312 0.626741,-0.86611 0.02923,-0.004 0.05847,-0.005 0.08588,-0.005 0.310629,0 0.520761,0.25033 0.579232,0.52989 0.01279,0.0658 0.0201,0.13157 0.0201,0.19917 0,0.22841 -0.07492,0.47143 -0.226576,0.73638 -0.05299,0.0895 0.02923,0.17541 0.105979,0.17541 0.03837,0 0.07857,-0.0183 0.100498,-0.0566 0.17176,-0.29967 0.25764,-0.58472 0.25764,-0.85332 0,-0.0859 -0.0091,-0.1681 -0.02558,-0.25033 -0.07857,-0.38006 -0.3691,-0.71993 -0.809463,-0.71993 -0.0402,0 -0.0804,0.004 -0.122425,0.009 -0.264948,0.0384 -0.476907,0.2083 -0.641358,0.50614 -0.0402,-0.2211 -0.104152,-0.38372 -0.191859,-0.4897 -0.02375,-0.0292 -0.05664,-0.042 -0.08771,-0.042 z m -1.975238,1.26261 c 0.0091,0.002 0.0201,0.004 0.02924,0.004 0.50797,0 0.895343,-0.0914 1.160292,-0.27043 0.190032,-0.12974 0.297838,-0.27592 0.297838,-0.47508 0,-0.0585 -0.01096,-0.11329 -0.03472,-0.16628 -0.08588,-0.19003 -0.301493,-0.29784 -0.568269,-0.29784 -0.349001,0 -0.630395,0.10598 -0.846008,0.32159 -0.166278,0.16628 -0.263121,0.36728 -0.29053,0.59751 -0.0055,0.0457 -0.0073,0.0877 -0.0073,0.12973 0,0.18821 0.05299,0.33438 0.148006,0.46777 0.168105,0.23754 0.412954,0.33256 0.688866,0.33256 0.266776,0 0.56096,-0.0895 0.840527,-0.22658 0.03654,-0.0183 0.06578,-0.0585 0.06578,-0.11146 0,-0.0658 -0.05664,-0.11512 -0.11877,-0.11512 -0.01827,0 -0.03472,0.004 -0.05299,0.0128 -0.272257,0.13521 -0.513452,0.20282 -0.721756,0.20282 -0.308802,0 -0.520761,-0.15166 -0.590196,-0.40565 z m -0.0201,-0.22292 c 0.03472,-0.45864 0.420263,-0.74551 0.906306,-0.74551 0.120598,0 0.213786,0.0256 0.283221,0.0786 0.04933,0.0384 0.08223,0.0713 0.08223,0.1407 0,0.11511 -0.06761,0.19917 -0.193687,0.28505 -0.226577,0.15348 -0.568269,0.23023 -1.028731,0.23023 -0.01645,0 -0.03289,0.004 -0.04933,0.011 z m -2.432045,-0.81129 c 0,0.17176 0.03837,0.41844 0.03837,0.60481 0,0.005 0,0.009 0,0.0146 0,0.0767 0.0037,0.12791 0.01279,0.15349 0.0073,0.21744 0.01279,0.59202 0.0201,1.12557 l 0.0055,0.44767 c 0,0.0658 0.05482,0.11695 0.120597,0.11695 0.06395,0 0.116943,-0.0567 0.116943,-0.1206 l -0.0055,-0.44584 c -0.0037,-0.25399 -0.0055,-0.45681 -0.0091,-0.60847 0.246676,0.2485 0.487871,0.38006 0.721757,0.39468 0.01827,0.002 0.03472,0.002 0.05299,0.002 0.208305,0 0.378237,-0.0822 0.509798,-0.24668 0.15166,-0.19003 0.243022,-0.45315 0.243022,-0.71627 0,-0.19552 -0.05116,-0.39103 -0.162624,-0.55548 -0.160796,-0.23754 -0.4093,-0.3691 -0.743683,-0.3691 -0.268603,0 -0.489698,0.13704 -0.655976,0.41295 -0.0055,-0.10598 -0.01096,-0.19003 -0.01827,-0.25216 -0.0073,-0.0658 -0.05299,-0.12608 -0.116942,-0.12608 -0.09319,0 -0.129734,0.0786 -0.129734,0.16811 z m 0.919098,0.0347 c 0.412954,0 0.668766,0.28322 0.668766,0.698 0,0.35448 -0.199168,0.71445 -0.518933,0.71445 -0.0091,0 -0.01645,0 -0.02558,0 -0.230231,-0.0165 -0.480561,-0.19186 -0.750992,-0.52625 -0.0018,-0.0566 -0.0018,-0.11328 -0.0037,-0.16627 0.0091,-0.0238 0.02193,-0.0603 0.03837,-0.11147 0.137042,-0.40564 0.334383,-0.60846 0.592023,-0.60846 z m -2.304139,1.63356 c 0.05116,0 0.146178,-0.053 0.146178,-0.1078 0,-0.0146 -0.0073,-0.0329 -0.0073,-0.064 0,-0.0566 0.0073,-0.10963 0.01462,-0.21927 0.01827,-0.13521 0.04568,-0.26494 0.0804,-0.38737 0.146178,-0.51528 0.374582,-0.79302 0.683384,-0.83139 0.06944,-0.007 0.100498,-0.0585 0.100498,-0.11146 0,-0.0621 -0.04203,-0.12425 -0.115116,-0.12425 -0.0055,0 -0.0091,0 -0.01462,0 -0.305147,0.0384 -0.544515,0.23206 -0.721756,0.58106 -0.0055,-0.21196 -0.02193,-0.36728 -0.04751,-0.46595 -0.01279,-0.0457 -0.05664,-0.0895 -0.113288,-0.0895 -0.07309,0 -0.115116,0.0512 -0.115116,0.1206 0,0.0201 0.0018,0.0439 0.0091,0.0694 0.01462,0.0585 0.02558,0.2211 0.03289,0.49153 0.0018,0.0932 0.0037,0.17724 0.0037,0.25398 0,0.21379 -0.02741,0.4696 -0.03472,0.60299 -0.0037,0.0438 -0.02558,0.095 -0.02558,0.14069 0,0.0548 0.05664,0.1407 0.124252,0.1407 z m -0.50797,-1.28454 c -0.02375,-0.25216 -0.122425,-0.42575 -0.301494,-0.52076 -0.100497,-0.053 -0.208304,-0.0804 -0.32342,-0.0804 -0.09136,0 -0.186377,0.0164 -0.285048,0.0493 -0.257639,0.0822 -0.451326,0.24851 -0.577405,0.49701 -0.08588,0.16993 -0.129733,0.34717 -0.129733,0.53355 0,0.28871 0.08588,0.51345 0.233885,0.65232 0.08223,0.0767 0.199169,0.13522 0.338038,0.13522 0.04751,0 0.09684,-0.007 0.149833,-0.0219 0.08588,-0.009 0.168105,-0.0457 0.248504,-0.10963 0.13156,-0.10598 0.255812,-0.25216 0.372755,-0.44036 0.0018,0.21378 0.02193,0.39285 0.0603,0.53355 0.01645,0.0603 0.06213,0.0859 0.109634,0.0859 0.0603,0 0.124252,-0.0439 0.124252,-0.11146 0,-0.011 -0.0018,-0.0219 -0.0055,-0.0347 -0.03472,-0.13156 -0.05299,-0.30149 -0.05299,-0.51345 0,-0.15166 0.0091,-0.32342 0.02741,-0.51528 0.01096,-0.0366 0.01644,-0.0676 0.01644,-0.0968 0,-0.0146 -0.0018,-0.0292 -0.0055,-0.042 z m -0.237541,0.0164 c -0.0018,0.0256 -0.0055,0.0512 -0.0073,0.0749 -0.113288,0.33804 -0.354482,0.69617 -0.537206,0.84053 -0.06212,0.0493 -0.102325,0.0731 -0.122424,0.0749 -0.05299,0.005 -0.09136,0.0201 -0.13887,0.0201 -0.06943,0 -0.13156,-0.0256 -0.186377,-0.0767 -0.08771,-0.0822 -0.149833,-0.25764 -0.149833,-0.46777 0,-0.14984 0.03654,-0.29784 0.113288,-0.44767 0.09136,-0.17907 0.233886,-0.29784 0.429399,-0.35997 0.0804,-0.0256 0.153488,-0.0384 0.219268,-0.0384 0.22475,0 0.358138,0.14618 0.380064,0.38006 z m -2.578223,1.28824 c 0.222922,0 0.469598,-0.0329 0.741856,-0.0968 0.06213,-0.0146 0.08953,-0.0621 0.08953,-0.10964 0,-0.0621 -0.04385,-0.12425 -0.115115,-0.12425 -0.0091,0 -0.01827,0.002 -0.02924,0.004 -0.253985,0.0603 -0.480562,0.0895 -0.683385,0.0895 -0.610295,0 -1.070757,-0.28687 -1.070757,-0.88438 0,-0.49335 0.33621,-0.90813 0.672421,-1.10547 0.222922,-0.12974 0.467771,-0.19734 0.73272,-0.19734 0.107806,0 0.21744,0.011 0.330729,0.0329 0.0091,0.002 0.01827,0.002 0.02558,0.002 0.06943,0 0.109634,-0.0603 0.109634,-0.12059 0,-0.0512 -0.02741,-0.10233 -0.09136,-0.11329 -0.129733,-0.0238 -0.25764,-0.0366 -0.380064,-0.0366 -0.305148,0 -0.586541,0.0768 -0.846008,0.22841 -0.400164,0.23571 -0.789364,0.71993 -0.789364,1.3156 0,0.72359 0.559133,1.11644 1.302816,1.11644 z m 6.855427,-18.72339 c -0.04932,0.002 -0.102395,0.0198 -0.162625,0.0673 -0.147522,-0.0569 -0.290607,-0.0767 -0.418573,0.0392 -0.197486,-0.0256 -0.261745,0.0273 -0.310401,0.089 -0.04336,-8.8e-4 -0.324543,-0.0446 -0.453474,0.14773 -0.324037,-0.0383 -0.426429,0.1906 -0.310401,0.40409 -0.06618,0.10245 -0.134753,0.20367 0.02001,0.39898 -0.05475,0.10878 -0.02079,0.22675 0.108172,0.36956 -0.03403,0.15291 0.03285,0.26084 0.152849,0.34493 -0.02244,0.20926 0.191894,0.33092 0.255904,0.37427 0.02458,0.12193 0.07581,0.23699 0.320633,0.30062 0.04038,0.18171 0.18752,0.21307 0.329998,0.2512 -0.470924,0.27373 -0.874781,0.63392 -0.872047,1.51756 l -0.06898,0.12302 c -0.539991,0.32841 -1.025814,1.3839 -0.266136,2.24183 0.04962,0.26854 0.13284,0.46142 0.206934,0.67489 0.110828,0.86019 0.834123,1.263 1.024895,1.31063 0.279548,0.21294 0.577276,0.41496 0.980174,0.55648 0.379813,0.39173 0.791294,0.54103 1.205014,0.54077 0.0061,0 0.01225,7e-5 0.01832,0 0.41372,2.6e-4 0.825201,-0.14904 1.205015,-0.54077 0.402897,-0.14152 0.700622,-0.34354 0.980173,-0.55648 0.190773,-0.0476 0.914068,-0.45044 1.024895,-1.31063 0.07409,-0.21347 0.157312,-0.40635 0.206934,-0.67489 0.759678,-0.85793 0.2739,-1.91342 -0.266091,-2.24183 l -0.06902,-0.12302 c 0.0027,-0.88364 -0.401077,-1.24383 -0.872001,-1.51756 0.142477,-0.0381 0.289622,-0.0695 0.329998,-0.2512 0.244828,-0.0636 0.296054,-0.17869 0.320633,-0.30062 0.06401,-0.0434 0.278347,-0.16501 0.255904,-0.37427 0.119996,-0.0841 0.186883,-0.19202 0.152849,-0.34493 0.128964,-0.14281 0.162873,-0.26078 0.108126,-0.36956 0.154762,-0.19531 0.08619,-0.29653 0.02001,-0.39898 0.116029,-0.21349 0.01364,-0.44242 -0.3104,-0.40409 -0.128931,-0.19234 -0.41011,-0.14863 -0.453474,-0.14773 -0.04866,-0.0617 -0.112915,-0.11461 -0.310401,-0.089 -0.127966,-0.11584 -0.271005,-0.0961 -0.418528,-0.0392 -0.175213,-0.13827 -0.291229,-0.0274 -0.423689,0.0145 -0.212203,-0.0693 -0.260688,0.0256 -0.364899,0.0643 -0.231296,-0.0489 -0.301601,0.0575 -0.412589,0.16989 l -0.129049,-0.003 c -0.348957,0.20565 -0.522304,0.62438 -0.583755,0.83966 -0.06148,-0.21531 -0.234449,-0.63404 -0.583344,-0.83966 l -0.129003,0.003 c -0.110986,-0.11235 -0.181291,-0.21878 -0.412587,-0.16989 -0.104211,-0.0387 -0.15274,-0.13359 -0.364945,-0.0643 -0.08693,-0.0275 -0.166873,-0.0847 -0.261019,-0.0818 z m 0.01233,0.247 c 0.177209,0.0656 0.268527,0.15036 0.364625,0.23402 0.03258,-0.044 0.08276,-0.0762 0.02216,-0.18227 0.12582,0.0725 0.220571,0.15797 0.290667,0.25371 0.07785,-0.0496 0.0464,-0.11737 0.04682,-0.17984 0.130759,0.10637 0.213713,0.2196 0.315289,0.33013 0.02046,-0.0149 0.0384,-0.0654 0.05422,-0.14535 0.311962,0.30264 0.752725,1.06493 0.113289,1.36718 -0.543915,-0.44892 -1.193813,-0.77509 -1.914073,-1.01983 0.925822,0.47732 1.464035,0.86342 1.758895,1.19227 -0.151003,0.60522 -0.938726,0.63285 -1.226759,0.61587 0.05898,-0.0274 0.108173,-0.0603 0.125623,-0.11086 -0.07228,-0.0514 -0.328556,-0.005 -0.507469,-0.10594 0.06873,-0.0142 0.100874,-0.0281 0.133023,-0.0788 -0.169035,-0.0539 -0.351094,-0.1004 -0.458179,-0.18971 0.05779,7.4e-4 0.111725,0.0129 0.1872,-0.0394 -0.151402,-0.0816 -0.312968,-0.14625 -0.43849,-0.27098 0.07828,-0.002 0.162707,-7.4e-4 0.187246,-0.0296 -0.138578,-0.0858 -0.255517,-0.1813 -0.352291,-0.28573 0.109549,0.0132 0.155831,0.002 0.182312,-0.0173 -0.10475,-0.10729 -0.23732,-0.19788 -0.300534,-0.33009 0.08134,0.028 0.155722,0.0388 0.209355,-0.002 -0.03559,-0.0803 -0.188069,-0.12764 -0.275866,-0.31529 0.08563,0.008 0.176436,0.0187 0.1946,0 -0.03982,-0.16199 -0.108025,-0.25304 -0.174912,-0.34736 0.183264,-0.003 0.460937,7e-4 0.448357,-0.0148 l -0.113334,-0.11575 c 0.179007,-0.0482 0.362164,0.008 0.495135,0.0492 0.05971,-0.0471 -0.0011,-0.10668 -0.07391,-0.16751 0.152128,0.0203 0.289609,0.0553 0.413869,0.10347 0.06639,-0.0599 -0.0431,-0.11986 -0.09607,-0.1798 0.235031,0.0446 0.334599,0.10724 0.433556,0.16998 0.0718,-0.0688 0.0041,-0.12734 -0.04435,-0.18725 z m 3.498466,0 c -0.04845,0.0599 -0.116153,0.11842 -0.04436,0.18724 0.09896,-0.0627 0.198526,-0.12539 0.433557,-0.16998 -0.05296,0.06 -0.162456,0.11986 -0.09607,0.1798 0.12426,-0.0482 0.26174,-0.0831 0.413869,-0.10346 -0.07285,0.0608 -0.133617,0.1204 -0.07391,0.16751 0.132971,-0.0415 0.316127,-0.0974 0.495134,-0.0493 l -0.113288,0.11576 c -0.01258,0.0155 0.265048,0.0121 0.448312,0.0148 -0.06689,0.0943 -0.135049,0.18537 -0.174867,0.34736 0.01816,0.0187 0.108973,0.008 0.1946,0 -0.0878,0.18765 -0.240317,0.23499 -0.275911,0.31529 0.05363,0.0412 0.128061,0.0305 0.2094,0.002 -0.06321,0.13221 -0.195784,0.2228 -0.300534,0.33009 0.02648,0.0191 0.07272,0.0305 0.182267,0.0173 -0.09677,0.10443 -0.213668,0.19988 -0.352245,0.28573 0.02454,0.0288 0.108919,0.0276 0.1872,0.0296 -0.125522,0.12472 -0.287088,0.18938 -0.43849,0.27097 0.07547,0.0524 0.129456,0.0401 0.187245,0.0394 -0.107085,0.0893 -0.28919,0.1358 -0.458224,0.18971 0.03215,0.0507 0.06429,0.0646 0.133022,0.0788 -0.178912,0.10051 -0.435146,0.0546 -0.507422,0.10593 0.01745,0.0505 0.06664,0.0834 0.125622,0.11087 -0.288033,0.017 -1.075801,-0.0107 -1.226804,-0.61587 0.29486,-0.32886 0.833073,-0.71495 1.758895,-1.19227 -0.72026,0.24473 -1.370159,0.5709 -1.914073,1.01982 -0.639437,-0.30225 -0.198627,-1.06453 0.113334,-1.36718 0.01582,0.0799 0.03372,0.13046 0.05418,0.14536 0.101576,-0.11054 0.184575,-0.22377 0.315335,-0.33014 4.18e-4,0.0625 -0.03107,0.13028 0.04678,0.17985 0.0701,-0.0957 0.164846,-0.18119 0.290667,-0.25371 -0.0606,0.10609 -0.01038,0.13829 0.0222,0.18226 0.0961,-0.0837 0.18737,-0.16838 0.364578,-0.23402 z m -1.811199,2.49303 c 0.01592,-3.5e-4 0.03186,-3.7e-4 0.04783,4e-5 0.45343,-0.005 1.014852,0.33836 1.012607,0.66183 -0.002,0.2855 -0.39431,0.51662 -1.009135,0.51222 -0.602058,-0.007 -1.007503,-0.29043 -1.006075,-0.56709 0.0011,-0.22057 0.46144,-0.59585 0.954775,-0.607 z m -1.495179,0.19263 c 0.101359,-0.002 0.20612,0.006 0.313142,0.024 0.315395,0.053 -1.511646,1.64841 -1.539809,1.2925 -0.02509,-0.81234 0.517151,-1.30332 1.226667,-1.31652 z m 2.991865,0.0272 c 0.709519,0.0132 1.251759,0.50423 1.226668,1.31657 -0.02816,0.35591 -1.855204,-1.23951 -1.53981,-1.2925 0.10702,-0.0181 0.211783,-0.026 0.313142,-0.0241 z m -0.34256,0.99036 a 1.1735613,0.99464684 55.965775 0 1 0.812616,2.09972 1.1735613,0.99464684 55.965775 1 1 -1.293955,-1.95816 1.1735613,0.99464684 55.965775 0 1 0.481339,-0.14156 z m -2.215976,0.0545 a 0.99464684,1.1735613 34.034225 0 1 4.5e-5,0 0.99464684,1.1735613 34.034225 0 1 0.494221,0.14157 0.99465037,1.1735655 34.034225 1 1 -1.294001,1.95815 0.99464684,1.1735613 34.034225 0 1 0.799735,-2.09972 z m 3.886844,0.6007 c 0.01391,-2.3e-4 0.02862,0.002 0.04412,0.006 0.823206,0.47008 0.680182,1.51602 0.23617,1.87318 -0.391041,0.17372 -0.711722,-1.87183 -0.280297,-1.87899 z m -5.644963,0.0273 c 0.431426,0.007 0.110744,2.0527 -0.280297,1.87899 -0.444012,-0.35717 -0.587036,-1.40311 0.23617,-1.87319 0.0155,-0.004 0.03021,-0.006 0.04413,-0.006 z m 2.892099,1.41226 a 1.1089822,1.022619 0 0 1 1.111049,1.02262 1.1089822,1.022619 0 0 1 -2.217941,0 1.1089822,1.022619 0 0 1 1.106892,-1.02262 z m 2.453152,0.38075 c 0.08662,-0.002 0.167714,0.0221 0.240829,0.0786 0.19688,0.19611 0.312375,0.93484 -0.0323,1.37719 -0.474664,0.65862 -1.117252,0.68424 -1.356629,0.5008 -0.250361,-0.23618 -0.05928,-0.96932 0.283907,-1.3713 0.294532,-0.33256 0.60432,-0.57853 0.864189,-0.58531 z m -5.012922,0.15646 c 0.285848,-0.006 0.636727,0.22002 0.921108,0.55 0.31719,0.38214 0.461772,1.05352 0.197067,1.25142 -0.250425,0.15108 -0.858593,0.0889 -1.290848,-0.53209 -0.291519,-0.52106 -0.253923,-1.05129 -0.04924,-1.20707 0.06696,-0.0408 0.141879,-0.0606 0.221917,-0.0623 z m 2.651818,1.82943 c 0.432777,0.003 0.958245,0.15855 0.959343,0.3612 0.0074,0.2099 -0.542153,0.68414 -1.074048,0.67498 -0.550843,0.0238 -1.090994,-0.45119 -1.083914,-0.61583 -0.0082,-0.24139 0.670735,-0.42988 1.113469,-0.4188 0.02785,-0.001 0.0563,-0.002 0.08515,-0.002 z m -6.47913,4.87421 5.270236,2.73973 7.892362,-4.8283 -0.500989,-4.13858 c -2.73513,1.63605 -3.796162,2.32452 -6.531927,3.95986 l -1.428618,-0.679 z m -3.988117,0.83156 -3.186429,-5.04862 7.616374,-4.45683 0.305779,3.26353 2.855595,1.47876 z m -0.3683,-8.28016 -0.02178,-5.93995 7.749804,-4.8368 3.706574,2.21269 c -2.673032,1.73685 -3.901413,2.4688 -6.611276,4.15372 l -0.05096,1.58091 z" />
        </g>
      </g>
    </g>
  </g>
</svg>
